<svg width="54" height="54" viewBox="0 0 54 54" fill="none" xmlns="http://www.w3.org/2000/svg">
<path d="M30.1725 27L39.8475 17.3475C40.2712 16.9238 40.5092 16.3492 40.5092 15.75C40.5092 15.1508 40.2712 14.5762 39.8475 14.1525C39.4238 13.7288 38.8492 13.4908 38.25 13.4908C37.6508 13.4908 37.0762 13.7288 36.6525 14.1525L27 23.8275L17.3475 14.1525C16.9238 13.7288 16.3492 13.4908 15.75 13.4908C15.1508 13.4908 14.5762 13.7288 14.1525 14.1525C13.7288 14.5762 13.4908 15.1508 13.4908 15.75C13.4908 16.3492 13.7288 16.9238 14.1525 17.3475L23.8275 27L14.1525 36.6525C13.9416 36.8617 13.7742 37.1105 13.66 37.3847C13.5458 37.6589 13.4869 37.953 13.4869 38.25C13.4869 38.547 13.5458 38.8411 13.66 39.1153C13.7742 39.3895 13.9416 39.6383 14.1525 39.8475C14.3617 40.0584 14.6105 40.2258 14.8847 40.34C15.1589 40.4542 15.453 40.513 15.75 40.513C16.047 40.513 16.3411 40.4542 16.6153 40.34C16.8895 40.2258 17.1383 40.0584 17.3475 39.8475L27 30.1725L36.6525 39.8475C36.8617 40.0584 37.1105 40.2258 37.3847 40.34C37.6589 40.4542 37.953 40.513 38.25 40.513C38.547 40.513 38.8411 40.4542 39.1153 40.34C39.3895 40.2258 39.6383 40.0584 39.8475 39.8475C40.0584 39.6383 40.2258 39.3895 40.34 39.1153C40.4542 38.8411 40.513 38.547 40.513 38.25C40.513 37.953 40.4542 37.6589 40.34 37.3847C40.2258 37.1105 40.0584 36.8617 39.8475 36.6525L30.1725 27Z" fill="white"/>
</svg>
