<svg width="32" height="32" viewBox="0 0 32 32" fill="none" xmlns="http://www.w3.org/2000/svg">
<path d="M10.6667 22C10.403 22 10.1452 22.0782 9.9259 22.2247C9.70663 22.3712 9.53574 22.5794 9.43482 22.823C9.3339 23.0667 9.3075 23.3348 9.35895 23.5934C9.41039 23.8521 9.53738 24.0896 9.72385 24.2761C9.91032 24.4626 10.1479 24.5896 10.4065 24.641C10.6652 24.6925 10.9333 24.666 11.1769 24.5651C11.4205 24.4642 11.6288 24.2933 11.7753 24.0741C11.9218 23.8548 12 23.597 12 23.3333C12 22.9797 11.8595 22.6405 11.6095 22.3905C11.3594 22.1404 11.0203 22 10.6667 22ZM16 2.66663C10.6667 2.66663 5.33333 4.49329 5.33333 7.99996V24C5.33333 27.5066 10.6667 29.3333 16 29.3333C21.3333 29.3333 26.6667 27.5066 26.6667 24V7.99996C26.6667 4.49329 21.3333 2.66663 16 2.66663ZM24 24C24 24.9466 20.96 26.6666 16 26.6666C11.04 26.6666 7.99999 24.9466 7.99999 24V19.64C10.4961 20.8266 13.2372 21.4068 16 21.3333C18.7628 21.4068 21.5039 20.8266 24 19.64V24ZM24 16C24 16.9466 20.96 18.6666 16 18.6666C11.04 18.6666 7.99999 16.9466 7.99999 16V11.64C10.4961 12.8266 13.2372 13.4068 16 13.3333C18.7628 13.4068 21.5039 12.8266 24 11.64V16ZM16 10.6666C11.04 10.6666 7.99999 8.94663 7.99999 7.99996C7.99999 7.05329 11.04 5.33329 16 5.33329C20.96 5.33329 24 7.05329 24 7.99996C24 8.94663 20.96 10.6666 16 10.6666ZM10.6667 14C10.403 14 10.1452 14.0782 9.9259 14.2247C9.70663 14.3712 9.53574 14.5794 9.43482 14.823C9.3339 15.0667 9.3075 15.3348 9.35895 15.5934C9.41039 15.8521 9.53738 16.0896 9.72385 16.2761C9.91032 16.4626 10.1479 16.5896 10.4065 16.641C10.6652 16.6925 10.9333 16.666 11.1769 16.5651C11.4205 16.4642 11.6288 16.2933 11.7753 16.0741C11.9218 15.8548 12 15.597 12 15.3333C12 14.9797 11.8595 14.6405 11.6095 14.3905C11.3594 14.1404 11.0203 14 10.6667 14Z" fill="white"/>
</svg>
