<svg width="44" height="44" viewBox="0 0 44 44" fill="none" xmlns="http://www.w3.org/2000/svg">
<path d="M10.0435 25.3479C9.1826 25.3479 8.27391 24.9653 7.65217 24.3435C7.03043 23.7218 6.69565 22.8609 6.69565 22C6.69565 21.1392 7.07826 20.2783 7.65217 19.6087C8.27391 18.987 9.13478 18.6522 10.0435 18.6522C10.9043 18.6522 11.7652 19.0348 12.387 19.6087C13.0087 20.2305 13.3913 21.0914 13.3913 22C13.3913 22.8609 13.0087 23.7218 12.387 24.3435C11.7652 24.9653 10.9043 25.3479 10.0435 25.3479ZM24.3435 24.3435C24.9652 23.7218 25.3478 22.8609 25.3478 22C25.3478 21.1392 24.9652 20.2783 24.3435 19.6087C23.7217 18.987 22.8609 18.6522 22 18.6522C21.1391 18.6522 20.2304 19.0348 19.6087 19.6087C18.987 20.2305 18.6522 21.0914 18.6522 22C18.6522 22.8609 19.0348 23.7218 19.6087 24.3435C20.2304 24.9653 21.0913 25.3479 22 25.3479C22.8609 25.3479 23.7217 24.9653 24.3435 24.3435ZM36.3 24.3435C36.9217 23.7218 37.3043 22.8609 37.3043 22C37.3043 21.1392 36.9217 20.2783 36.3 19.6087C35.6783 18.987 34.8174 18.6522 33.9565 18.6522C33.0956 18.6522 32.187 19.0348 31.5652 19.6087C30.9435 20.2305 30.6087 21.0914 30.6087 22C30.6087 22.8609 30.9913 23.7218 31.5652 24.3435C32.187 24.9653 33.0478 25.3479 33.9565 25.3479C34.8174 25.3479 35.6783 24.9653 36.3 24.3435Z" fill="white"/>
</svg>
